<svg xmlns="http://www.w3.org/2000/svg" xmlns:xlink="http://www.w3.org/1999/xlink" xmlns:lucid="lucid" width="1878.8" height="1506.53"><g transform="translate(-762.2000000000003 1081)" lucid:page-tab-id="0_0"><path d="M500-1500h2500V500H500z" fill="#fff"/><path d="M883.2 344.53c22.1 0 40 17.9 40 40s-17.9 40-40 40h-80c-22.1 0-40-17.9-40-40s17.9-40 40-40z" stroke="#3a414a" stroke-width="2" fill="#fff"/><use xlink:href="#a" transform="matrix(1,0,0,1,768.2000000000003,349.5333333333334) translate(33.7037037037037 39.65277777777778)"/><use xlink:href="#b" transform="matrix(1,0,0,1,768.2000000000003,349.5333333333334) translate(94.1358024691358 39.65277777777778)"/><path d="M763.2 146a6 6 0 0 1 6-6h148a6 6 0 0 1 6 6v108a6 6 0 0 1-6 6h-148a6 6 0 0 1-6-6z" stroke="#3a414a" stroke-width="2" fill="#fff"/><use xlink:href="#c" transform="matrix(1,0,0,1,775.2000000000003,152) translate(-2.308641975308632 52.44444444444444)"/><path d="M2480-20c22.1 0 40 17.9 40 40s-17.9 40-40 40h-80c-22.1 0-40-17.9-40-40s17.9-40 40-40z" stroke="#3a414a" stroke-width="2" fill="#fff"/><use xlink:href="#d" transform="matrix(1,0,0,1,2365,-15) translate(29.413580246913583 39.65277777777778)"/><use xlink:href="#b" transform="matrix(1,0,0,1,2365,-15) translate(98.42592592592592 39.65277777777778)"/><path d="M2180-20c22.1 0 40 17.9 40 40s-17.9 40-40 40h-80c-22.1 0-40-17.9-40-40s17.9-40 40-40z" stroke="#3a414a" stroke-width="2" fill="#fff"/><use xlink:href="#e" transform="matrix(1,0,0,1,2065,-15) translate(28.17901234567902 39.65277777777778)"/><use xlink:href="#b" transform="matrix(1,0,0,1,2065,-15) translate(99.66049382716048 39.65277777777778)"/><path d="M1420-20c22.1 0 40 17.9 40 40s-17.9 40-40 40h-80c-22.1 0-40-17.9-40-40s17.9-40 40-40z" stroke="#3a414a" stroke-width="2" fill="#fff"/><use xlink:href="#f" transform="matrix(1,0,0,1,1305,-15) translate(25.154320987654323 39.65277777777778)"/><use xlink:href="#b" transform="matrix(1,0,0,1,1305,-15) translate(102.68518518518519 39.65277777777778)"/><path d="M1300-254a6 6 0 0 1 6-6h148a6 6 0 0 1 6 6v108a6 6 0 0 1-6 6h-148a6 6 0 0 1-6-6z" stroke="#3a414a" stroke-width="2" fill="#fff"/><use xlink:href="#g" transform="matrix(1,0,0,1,1312,-248) translate(32.84567901234568 53.77777777777778)"/><path d="M1500-254a6 6 0 0 1 6-6h148a6 6 0 0 1 6 6v108a6 6 0 0 1-6 6h-148a6 6 0 0 1-6-6z" stroke="#3a414a" stroke-width="2" fill="#fff"/><use xlink:href="#h" transform="matrix(1,0,0,1,1512,-248) translate(44.20370370370371 38.77777777777778)"/><use xlink:href="#i" transform="matrix(1,0,0,1,1512,-248) translate(13.740740740740733 65.44444444444446)"/><path d="M1640-434a6 6 0 0 1 6-6h148a6 6 0 0 1 6 6v108a6 6 0 0 1-6 6h-148a6 6 0 0 1-6-6z" stroke="#3a414a" stroke-width="2" fill="#fff"/><use xlink:href="#j" transform="matrix(1,0,0,1,1652,-428) translate(48.24691358024691 38.77777777777778)"/><use xlink:href="#k" transform="matrix(1,0,0,1,1652,-428) translate(13.740740740740733 65.44444444444446)"/><path d="M2060-434a6 6 0 0 1 6-6h148a6 6 0 0 1 6 6v108a6 6 0 0 1-6 6h-148a6 6 0 0 1-6-6z" stroke="#3a414a" stroke-width="2" fill="#fff"/><use xlink:href="#l" transform="matrix(1,0,0,1,2072,-428) translate(48.89506172839506 38.77777777777778)"/><use xlink:href="#k" transform="matrix(1,0,0,1,2072,-428) translate(13.740740740740733 65.44444444444446)"/><path d="M1860-434a6 6 0 0 1 6-6h148a6 6 0 0 1 6 6v108a6 6 0 0 1-6 6h-148a6 6 0 0 1-6-6z" stroke="#3a414a" stroke-width="2" fill="#fff"/><use xlink:href="#m" transform="matrix(1,0,0,1,1872,-428) translate(5.962962962962969 38.77777777777778)"/><use xlink:href="#n" transform="matrix(1,0,0,1,1872,-428) translate(59.7283950617284 38.77777777777778)"/><use xlink:href="#o" transform="matrix(1,0,0,1,1872,-428) translate(8.185185185185176 65.44444444444446)"/><path d="M2480-434a6 6 0 0 1 6-6h148a6 6 0 0 1 6 6v108a6 6 0 0 1-6 6h-148a6 6 0 0 1-6-6z" stroke="#3a414a" stroke-width="2" fill="#fff"/><use xlink:href="#h" transform="matrix(1,0,0,1,2492,-428) translate(44.20370370370371 26.77777777777778)"/><use xlink:href="#p" transform="matrix(1,0,0,1,2492,-428) translate(21.79629629629629 53.44444444444445)"/><use xlink:href="#q" transform="matrix(1,0,0,1,2492,-428) translate(30.407407407407405 80.11111111111111)"/><path d="M2280-434a6 6 0 0 1 6-6h148a6 6 0 0 1 6 6v108a6 6 0 0 1-6 6h-148a6 6 0 0 1-6-6z" stroke="#3a414a" stroke-width="2" fill="#fff"/><use xlink:href="#r" transform="matrix(1,0,0,1,2292,-428) translate(35.96296296296296 38.77777777777778)"/><use xlink:href="#k" transform="matrix(1,0,0,1,2292,-428) translate(13.740740740740733 65.44444444444446)"/><path d="M1080-374a6 6 0 0 1 6-6h148a6 6 0 0 1 6 6v108a6 6 0 0 1-6 6h-148a6 6 0 0 1-6-6z" stroke="#3a414a" stroke-width="2" fill="#fff"/><use xlink:href="#s" transform="matrix(1,0,0,1,1092,-368) translate(31.672839506172842 38.77777777777778)"/><use xlink:href="#k" transform="matrix(1,0,0,1,1092,-368) translate(13.740740740740733 65.44444444444446)"/><path d="M2100-666c0 25.4-174.6 46-390 46s-390-20.6-390-46v-368c0-25.4 174.6-46 390-46s390 20.6 390 46z" stroke="#3a414a" stroke-width="2" fill="#fff"/><path d="M2100-1034c0 25.4-174.6 46-390 46s-390-20.6-390-46" stroke="#3a414a" stroke-width="2" fill="none"/><use xlink:href="#t" transform="matrix(1,0,0,1,1325,-983) translate(337.5 186.05902777777777)"/><path d="M843.67 343.03h-.94v-30.1h.94zm0-51.43h-.94v-14.22h.94z" stroke="#3a414a" stroke-width=".05" fill="#3a414a"/><path d="M843.67 343.53h-.94v-.5h.94z" fill="#3a414a"/><path stroke="#3a414a" stroke-width=".05" fill="#3a414a"/><path d="M847.84 276.88h-9.27l4.63-14.26z" fill="#3a414a"/><path d="M848.5 277.36h-10.6l5.3-16.28zm-9.28-.95h7.96l-3.98-12.25z" stroke="#3a414a" stroke-width=".05" fill="#3a414a"/><use xlink:href="#u" transform="matrix(1,0,0,1,822.4839506172842,291.59997500000014) translate(0 14.222222222222223)"/><path d="M843.2 138.5V106a6 6 0 0 1 6-6H1374a6 6 0 0 0 6-6V77.38" stroke="#3a414a" fill="none"/><path d="M843.67 139h-.94v-.5h.94z" stroke="#3a414a" stroke-width=".05" fill="#3a414a"/><path d="M1380 62.62l4.63 14.26h-9.27z" stroke="#3a414a" fill="#3a414a"/><path d="M843.2 138.5V106a6 6 0 0 1 6-6H2134a6 6 0 0 0 6-6V77.38" stroke="#3a414a" fill="none"/><path d="M843.67 139h-.94v-.5h.94z" stroke="#3a414a" stroke-width=".05" fill="#3a414a"/><path d="M2140 62.62l4.64 14.26h-9.28z" stroke="#3a414a" fill="#3a414a"/><path d="M843.2 138.5V106a6 6 0 0 1 6-6H2434a6 6 0 0 0 6-6V77.38" stroke="#3a414a" fill="none"/><path d="M843.67 139h-.94v-.5h.94z" stroke="#3a414a" stroke-width=".05" fill="#3a414a"/><path d="M2440 62.62l4.64 14.26h-9.28z" stroke="#3a414a" fill="#3a414a"/><path d="M1298.5 20.48h-4.9v-.96h4.9zm-9.82 0h-9.8v-.96h9.8zm-14.72 0h-9.8v-.96h9.8zm-14.72 0h-9.8v-.96h9.8zm-14.72 0h-9.82v-.96h9.82zm-14.72 0h-9.82v-.96h9.82zm-14.73 0h-9.8v-.96h9.8zm-14.72 0h-9.8v-.96h9.8zm-14.72 0h-9.82l.02-.96h9.8zm-25.16-6.5l.07.88.2.85.34.8.45.75.56.66.65.57.74.45.8.33.84.2.88.07h4.9v.96h-4.94l-1-.08-.98-.24-.94-.4-.87-.52-.78-.66-.66-.77-.53-.86-.4-.94-.23-1-.07-.98V8.97h.94zm0-10.04h-.94V-6.13h.94zm0-15.1h-.94v-10.06h.94zm0-15.1h-.94V-36.3h.94zm0-34.4h-.94v-5.85h.94zm0-10.88h-.94V-81.6h.94zm0-15.1h-.94V-96.7h.94zm0-15.1h-.94v-10.05h.94zm0-15.08h-.94v-10.07h.94zm0-15.1h-.94v-10.06h.94zm0-15.1h-.94v-10.06h.94zm0-15.1h-.94v-10.05h.94zm0-15.08h-.94v-10.07h.94zm0-15.1h-.94v-10.06h.94zm0-15.1h-.94v-10.06h.94zm0-15.1h-.94v-10.05h.94zm0-15.08h-.94v-5.04h.94z" stroke="#3a414a" stroke-width=".05" fill="#3a414a"/><path d="M1299 20l.02.48h-.53v-.96h.53z" fill="#3a414a"/><path stroke="#3a414a" stroke-width=".05" fill="#3a414a"/><path d="M1164.63-243.12h-9.27l4.64-14.26z" fill="#3a414a"/><path d="M1165.3-242.64h-10.6l5.3-16.28zm-9.28-.95h7.96l-3.98-12.25z" stroke="#3a414a" stroke-width=".05" fill="#3a414a"/><use xlink:href="#u" transform="matrix(1,0,0,1,1139.283950617284,-60.66700352651081) translate(0 14.222222222222223)"/><path d="M2560.47 14.02l-.07 1-.24.98-.4.94-.52.87-.66.78-.77.66-.86.53-.94.4-1 .23-.98.08h-32.52v-.96h32.48l.88-.06.85-.2.8-.34.75-.45.66-.56.57-.65.45-.74.33-.8.2-.84.08-.88V-236.7h.94zm0-272.06h-.94v-44.58h.94z" stroke="#3a414a" stroke-width=".05" fill="#3a414a"/><path d="M2521.5 20.48h-.53l.03-.47-.02-.48h.53z" fill="#3a414a"/><path stroke="#3a414a" stroke-width=".05" fill="#3a414a"/><path d="M2564.64-303.12h-9.28l4.64-14.26z" fill="#3a414a"/><path d="M2565.3-302.64h-10.6l5.3-16.28zm-9.28-.95h7.96l-3.98-12.25z" stroke="#3a414a" stroke-width=".05" fill="#3a414a"/><use xlink:href="#v" transform="matrix(1,0,0,1,2541.259259259259,-258.0359123513751) translate(0 14.222222222222223)"/><path d="M2440.47-21.5h-.94v-4.75h.94zm0-9.5h-.94v-9.5h.94zm0-14.25h-.94v-9.5h.94zm0-14.25h-.94V-69h.94zm0-14.25h-.94v-9.5h.94zm0-14.25h-.94v-9.5h.94zm0-14.25h-.94v-9.5h.94zm0-14.25h-.94v-9.5h.94zm0-14.25h-.94v-9.5h.94zm0-14.25h-.94v-9.5h.94zm-5.46-25.4l1 .24.94.4.87.52.78.66.66.77.53.86.4.94.23 1 .07.98v4.77h-.94v-4.73l-.07-.88-.2-.85-.34-.8-.45-.75-.56-.66-.65-.57-.74-.45-.8-.33-.84-.2-.88-.08h-4.5v-.94h4.54zm-10.07.88h-9.06v-.95h9.06zm-13.6 0h-9.06v-.95h9.06zm-13.6 0h-9.06v-.95h9.06zm-13.6 0h-9.06v-.95h9.06zm-23.66-6.5l.07.88.2.85.34.8.45.75.56.66.65.57.74.45.8.33.84.2.88.08h4.5v.94H2366l-1-.07-.98-.24-.94-.4-.87-.52-.78-.66-.66-.77-.53-.86-.4-.94-.23-1-.07-.98v-5.3h.94zm0-10.53h-.94v-10.55h.94zm0-15.83h-.94v-10.55h.94zm0-15.83h-.94v-10.56h.94zm0-15.83h-.94v-6.42h.94zm0-31.66h-.94v-10.54h.94zm0-15.8h-.94v-10.56h.94zm0-15.84h-.94v-5.28h.94z" stroke="#3a414a" stroke-width=".05" fill="#3a414a"/><path d="M2440.47-21h-.94v-.5h.94z" fill="#3a414a"/><path stroke="#3a414a" stroke-width=".05" fill="#3a414a"/><path d="M2364.64-303.12h-9.28l4.64-14.26z" fill="#3a414a"/><path d="M2365.3-302.64h-10.6l5.3-16.28zm-9.28-.95h7.96l-3.98-12.25zM2226.33 20.48h-4.83v-.96h4.83zm16.15-6.46l-.08 1-.24.98-.4.94-.52.87-.66.78-.77.66-.86.53-.94.4-1 .23-.98.08h-4.85v-.96h4.8l.9-.06.84-.2.8-.34.75-.45.66-.56.57-.65.45-.74.33-.8.2-.84.08-.88V9.06h.95zm0-9.9h-.95v-9.9h.95zm0-14.84h-.95v-9.9h.95zm0-14.84h-.95v-9.88h.95zm0-14.83h-.95v-9.88h.95zm0-14.82h-.95v-9.9h.95zm0-14.84h-.95v-9.88h.95zm0-14.83h-.95v-9.88h.95zm0-14.82h-.95v-9.9h.95zm0-14.84h-.95v-9.88h.95zm0-14.83h-.95v-9.88h.95zm0-14.82h-.95v-9.9h.95zm10.57-25.3h-5.03l-.88.06-.85.2-.8.34-.75.45-.66.56-.57.65-.45.74-.33.8-.2.84-.07.88v4.92h-.95v-4.96l.07-1 .24-.98.4-.94.52-.87.66-.78.77-.66.86-.53.94-.4 1-.23.98-.07h5.07zm15.14 0h-10.1v-.95h10.1zm15.13 0h-10.1v-.95h10.1zm15.15 0h-10.1v-.95h10.1zm15.14 0h-10.1v-.95h10.1zm15.14 0h-10.1v-.95h10.1zm15.14 0h-10.1v-.95h10.1zm16.57-6.46l-.07 1-.24.98-.4.94-.52.87-.66.78-.77.66-.86.53-.94.4-1 .23-.98.07h-5.07v-.94h5.03l.88-.07.85-.2.8-.34.75-.45.66-.56.57-.65.45-.74.33-.8.2-.84.08-.88v-5.26h.94zm0-10.57h-.94v-10.55h.94zm0-15.83h-.94v-10.55h.94zm0-15.83h-.94v-10.56h.94zm0-15.83h-.94v-6.42h.94zm0-31.66h-.94v-10.54h.94zm0-15.8h-.94v-10.56h.94zm0-15.84h-.94v-5.28h.94z" stroke="#3a414a" stroke-width=".05" fill="#3a414a"/><path d="M2221.5 20.48h-.53l.03-.47-.02-.48h.53z" fill="#3a414a"/><path stroke="#3a414a" stroke-width=".05" fill="#3a414a"/><path d="M2364.64-303.12h-9.28l4.64-14.26z" fill="#3a414a"/><path d="M2365.3-302.64h-10.6l5.3-16.28zm-9.28-.95h7.96l-3.98-12.25z" stroke="#3a414a" stroke-width=".05" fill="#3a414a"/><use xlink:href="#u" transform="matrix(1,0,0,1,2339.283950617284,-261.78742703935126) translate(0 14.222222222222223)"/><path d="M1940.47-176.02l.07.88.2.85.34.8.45.75.56.66.65.57.74.45.8.33.84.2.88.08h188l1 .07.98.24.94.4.87.52.78.66.66.77.53.86.4.94.23 1 .07.98V-21.5h-.94v-142.48l-.07-.88-.2-.85-.34-.8-.45-.75-.56-.66-.65-.57-.74-.45-.8-.33-.84-.2-.88-.08h-188l-1-.07-.98-.24-.94-.4-.87-.52-.78-.66-.66-.77-.53-.86-.4-.94-.23-1-.07-.98v-65.6h.94zm0-86.9h-.94v-39.7h.94z" stroke="#3a414a" stroke-width=".05" fill="#3a414a"/><path d="M2140.47-21h-.94v-.5h.94z" fill="#3a414a"/><path stroke="#3a414a" stroke-width=".05" fill="#3a414a"/><path d="M1944.63-303.12h-9.27l4.64-14.26z" fill="#3a414a"/><path d="M1945.3-302.64h-10.6l5.3-16.28zm-9.28-.95h7.96l-3.98-12.25z" stroke="#3a414a" stroke-width=".05" fill="#3a414a"/><use xlink:href="#v" transform="matrix(1,0,0,1,1921.2592592592594,-262.91288144574395) translate(0 14.222222222222223)"/><path d="M2140.47-21.5h-.94v-4.93h.94zm0-9.86h-.94v-9.87h.94zm0-14.8h-.94v-9.86h.94zm0-14.8h-.94v-9.86h.94zm0-14.8h-.94v-9.85h.94zm0-14.8h-.94v-9.85h.94zm0-14.78h-.94v-9.86h.94zm0-14.8h-.94V-130h.94zm0-14.8h-.94v-9.86h.94zm0-14.8h-.94v-9.85h.94zm0-14.78h-.94v-9.87h.94zm0-14.8h-.94v-9.86h.94zm0-14.8h-.94v-9.86h.94zm0-14.8h-.94v-9.86h.94zm0-14.8h-.94v-9.85h.94zm0-14.78h-.94v-5.7h.94zm0-29.6h-.94v-9.86h.94zm0-14.8h-.94v-9.85h.94zm0-14.78h-.94v-4.94h.94z" stroke="#3a414a" stroke-width=".05" fill="#3a414a"/><path d="M2140.47-21h-.94v-.5h.94z" fill="#3a414a"/><path stroke="#3a414a" stroke-width=".05" fill="#3a414a"/><path d="M2144.64-303.12h-9.28l4.64-14.26z" fill="#3a414a"/><path d="M2145.3-302.64h-10.6l5.3-16.28zm-9.28-.95h7.96l-3.98-12.25z" stroke="#3a414a" stroke-width=".05" fill="#3a414a"/><use xlink:href="#w" transform="matrix(1,0,0,1,2098.074074074074,-265.5389417273276) translate(0 14.222222222222223)"/><path d="M960 146a6 6 0 0 1 6-6h148a6 6 0 0 1 6 6v108a6 6 0 0 1-6 6H966a6 6 0 0 1-6-6z" stroke="#3a414a" stroke-width="2" fill="#fff"/><use xlink:href="#x" transform="matrix(1,0,0,1,972,152) translate(2.6296296296296333 53.77777777777778)"/><use xlink:href="#y" transform="matrix(1,0,0,1,972,152) translate(53.12345679012346 53.77777777777778)"/><path d="M1380.47-21.5h-.94v-62.52h.94zm0-83.85h-.94v-17.27h.94z" stroke="#3a414a" stroke-width=".05" fill="#3a414a"/><path d="M1380.47-21h-.94v-.5h.94z" fill="#3a414a"/><path stroke="#3a414a" stroke-width=".05" fill="#3a414a"/><path d="M1384.63-123.12h-9.27l4.64-14.26z" fill="#3a414a"/><path d="M1385.3-122.64h-10.6l5.3-16.28zm-9.28-.95h7.96l-3.98-12.25zM1580.47-65.98l-.07 1-.24.98-.4.94-.52.87-.66.78-.77.66-.86.53-.94.4-1 .23-.98.08h-188l-.88.06-.85.2-.8.34-.75.45-.66.56-.57.65-.45.74-.33.8-.2.84-.08.88v32.48h-.94v-32.52l.07-1 .24-.98.4-.94.52-.87.66-.78.77-.66.86-.53.94-.4 1-.23.98-.08h188l.88-.06.85-.2.8-.34.75-.45.66-.56.57-.65.45-.74.33-.8.2-.84.08-.88v-18h.94zm0-39.37h-.94v-17.27h.94z" stroke="#3a414a" stroke-width=".05" fill="#3a414a"/><path d="M1380.47-21h-.94v-.5h.94z" fill="#3a414a"/><path stroke="#3a414a" stroke-width=".05" fill="#3a414a"/><path d="M1584.63-123.12h-9.27l4.64-14.26z" fill="#3a414a"/><path d="M1585.3-122.64h-10.6l5.3-16.28zm-9.28-.95h7.96l-3.98-12.25zM1040.47 378.55l-.07 1-.24 1-.4.92-.52.87-.66.77-.77.67-.86.53-.94.4-1 .23-.98.08H924.7v-.94h109.28l.88-.07.85-.2.8-.35.75-.45.66-.56.57-.66.45-.74.33-.8.2-.84.08-.88v-60.75h.94zm0-82.1h-.94v-19.07h.94z" stroke="#3a414a" stroke-width=".05" fill="#3a414a"/><path d="M924.7 385h-.53l.03-.45-.02-.5h.53z" fill="#3a414a"/><path stroke="#3a414a" stroke-width=".05" fill="#3a414a"/><path d="M1044.63 276.88h-9.27l4.64-14.26z" fill="#3a414a"/><path d="M1045.3 277.36h-10.6l5.3-16.28zm-9.28-.95h7.96l-3.98-12.25z" stroke="#3a414a" stroke-width=".05" fill="#3a414a"/><use xlink:href="#u" transform="matrix(1,0,0,1,1019.283950617284,296.43795853152466) translate(0 14.222222222222223)"/><path d="M1121.5 200H1374a6 6 0 0 0 6-6V77.38" stroke="#3a414a" fill="none"/><path d="M1121.5 200.47h-.5v-.94h.5z" stroke="#3a414a" stroke-width=".05" fill="#3a414a"/><path d="M1380 62.62l4.63 14.26h-9.27z" stroke="#3a414a" fill="#3a414a"/><path d="M1121.5 200H2134a6 6 0 0 0 6-6V77.38" stroke="#3a414a" fill="none"/><path d="M1121.5 200.47h-.5v-.94h.5z" stroke="#3a414a" stroke-width=".05" fill="#3a414a"/><path d="M2140 62.62l4.64 14.26h-9.28z" stroke="#3a414a" fill="#3a414a"/><path d="M1720.47-176.02l.07.88.2.85.34.8.45.75.56.66.65.57.74.45.8.33.84.2.88.08h408l1 .07.98.24.94.4.87.52.78.66.66.77.53.86.4.94.23 1 .07.98V-21.5h-.94v-142.48l-.07-.88-.2-.85-.34-.8-.45-.75-.56-.66-.65-.57-.74-.45-.8-.33-.84-.2-.88-.08h-408l-1-.07-.98-.24-.94-.4-.87-.52-.78-.66-.66-.77-.53-.86-.4-.94-.23-1-.07-.98v-65.6h.94zm0-86.9h-.94v-39.7h.94z" stroke="#3a414a" stroke-width=".05" fill="#3a414a"/><path d="M2140.47-21h-.94v-.5h.94z" fill="#3a414a"/><path stroke="#3a414a" stroke-width=".05" fill="#3a414a"/><path d="M1724.63-303.12h-9.27l4.64-14.26z" fill="#3a414a"/><path d="M1725.3-302.64h-10.6l5.3-16.28zm-9.28-.95h7.96l-3.98-12.25z" stroke="#3a414a" stroke-width=".05" fill="#3a414a"/><use xlink:href="#u" transform="matrix(1,0,0,1,1699.283950617284,-262.91288144574395) translate(0 14.222222222222223)"/><path d="M1380.47-66.02l.07.88.2.85.34.8.45.75.56.66.65.57.74.45.8.33.84.2.88.07h646l1 .08.98.24.94.4.87.52.78.66.66.77.53.86.4.94.23 1 .07.98v68l.07.88.2.85.34.8.45.75.56.66.65.57.74.45.8.33.84.2.88.07h14.48v.96h-14.52l-1-.08-.98-.24-.94-.4-.87-.52-.78-.66-.66-.77-.53-.86-.4-.94-.23-1-.08-.98v-68l-.07-.88-.2-.85-.33-.8-.45-.75-.57-.66-.65-.57-.74-.45-.8-.33-.84-.2-.88-.07h-646l-1-.08-.98-.24-.94-.4-.87-.52-.78-.66-.66-.77-.53-.86-.4-.94-.23-1-.07-.98v-18.04h.94zm0-39.33h-.94v-17.27h.94z" stroke="#3a414a" stroke-width=".05" fill="#3a414a"/><path d="M2059 20l.02.48h-.53v-.96h.53z" fill="#3a414a"/><path stroke="#3a414a" stroke-width=".05" fill="#3a414a"/><path d="M1384.63-123.12h-9.27l4.64-14.26z" fill="#3a414a"/><path d="M1385.3-122.64h-10.6l5.3-16.28zm-9.28-.95h7.96l-3.98-12.25zM1580.47-66.02l.07.88.2.85.34.8.45.75.56.66.65.57.74.45.8.33.84.2.88.07h446l1 .08.98.24.94.4.87.52.78.66.66.77.53.86.4.94.23 1 .07.98v68l.07.88.2.85.34.8.45.75.56.66.65.57.74.45.8.33.84.2.88.07h14.48v.96h-14.52l-1-.08-.98-.24-.94-.4-.87-.52-.78-.66-.66-.77-.53-.86-.4-.94-.23-1-.08-.98v-68l-.07-.88-.2-.85-.33-.8-.45-.75-.57-.66-.65-.57-.74-.45-.8-.33-.84-.2-.88-.07h-446l-1-.08-.98-.24-.94-.4-.87-.52-.78-.66-.66-.77-.53-.86-.4-.94-.23-1-.07-.98v-18.04h.94zm0-39.33h-.94v-17.27h.94z" stroke="#3a414a" stroke-width=".05" fill="#3a414a"/><path d="M2059 20l.02.48h-.53v-.96h.53z" fill="#3a414a"/><path stroke="#3a414a" stroke-width=".05" fill="#3a414a"/><path d="M1584.63-123.12h-9.27l4.64-14.26z" fill="#3a414a"/><path d="M1585.3-122.64h-10.6l5.3-16.28zm-9.28-.95h7.96l-3.98-12.25zM1380.47-66.02l.07.88.2.85.34.8.45.75.56.66.65.57.74.45.8.33.84.2.88.07h748.57l.2-1.3 1.95-2.66 3.2-1.05 1.82.3 2.67 1.95.9 2.77h91.26l.2-1.3 1.95-2.66 3.2-1.05 1.82.3 2.67 1.95.9 2.77h84.68l1 .08.98.24.94.4.87.52.78.66.66.77.53.86.4.94.23 1 .07.98v68l.07.88.2.85.34.8.45.75.56.66.65.57.74.45.8.33.84.2.88.07h14.48v.96h-14.52l-1-.08-.98-.24-.94-.4-.87-.52-.78-.66-.66-.77-.53-.86-.4-.94-.23-1-.08-.98v-68l-.07-.88-.2-.85-.33-.8-.45-.75-.56-.66-.65-.57-.74-.45-.8-.33-.84-.2-.88-.07h-85.32l-1.03-3.14-2.24-1.63-1.36-.2-2.7.87-1.63 2.24-.3 1.88h-92.74l-1.03-3.14-2.24-1.63-1.36-.2-2.7.87-1.63 2.24-.3 1.88H1386l-1-.08-.98-.24-.94-.4-.87-.52-.78-.66-.66-.77-.53-.86-.4-.94-.23-1-.07-.98v-18.04h.94zm0-39.33h-.94v-17.27h.94z" stroke="#3a414a" stroke-width=".05" fill="#3a414a"/><path d="M2359 20l.02.48h-.53v-.96h.53z" fill="#3a414a"/><path stroke="#3a414a" stroke-width=".05" fill="#3a414a"/><path d="M1384.63-123.12h-9.27l4.64-14.26z" fill="#3a414a"/><path d="M1385.3-122.64h-10.6l5.3-16.28zm-9.28-.95h7.96l-3.98-12.25z" stroke="#3a414a" stroke-width=".05" fill="#3a414a"/><use xlink:href="#u" transform="matrix(1,0,0,1,1359.283950617284,-105.34926455073871) translate(0 14.222222222222223)"/><path d="M1580.47-66.02l.07.88.2.85.34.8.45.75.56.66.65.57.74.45.8.33.84.2.88.07h548.57l.2-1.3 1.95-2.66 3.2-1.05 1.82.3 2.67 1.95.9 2.77h91.26l.2-1.3 1.95-2.66 3.2-1.05 1.82.3 2.67 1.95.9 2.77h84.68l1 .08.98.24.94.4.87.52.78.66.66.77.53.86.4.94.23 1 .07.98v68l.07.88.2.85.34.8.45.75.56.66.65.57.74.45.8.33.84.2.88.07h14.48v.96h-14.52l-1-.08-.98-.24-.94-.4-.87-.52-.78-.66-.66-.77-.53-.86-.4-.94-.23-1-.08-.98v-68l-.07-.88-.2-.85-.33-.8-.45-.75-.56-.66-.65-.57-.74-.45-.8-.33-.84-.2-.88-.07h-85.32l-1.03-3.14-2.24-1.63-1.36-.2-2.7.87-1.63 2.24-.3 1.88h-92.74l-1.03-3.14-2.24-1.63-1.36-.2-2.7.87-1.63 2.24-.3 1.88H1586l-1-.08-.98-.24-.94-.4-.87-.52-.78-.66-.66-.77-.53-.86-.4-.94-.23-1-.07-.98v-18.04h.94zm0-39.33h-.94v-17.27h.94z" stroke="#3a414a" stroke-width=".05" fill="#3a414a"/><path d="M2359 20l.02.48h-.53v-.96h.53z" fill="#3a414a"/><path stroke="#3a414a" stroke-width=".05" fill="#3a414a"/><path d="M1584.63-123.12h-9.27l4.64-14.26z" fill="#3a414a"/><path d="M1585.3-122.64h-10.6l5.3-16.28zm-9.28-.95h7.96l-3.98-12.25z" stroke="#3a414a" stroke-width=".05" fill="#3a414a"/><use xlink:href="#v" transform="matrix(1,0,0,1,1561.2592592592594,-105.34926455073871) translate(0 14.222222222222223)"/><path d="M2478.5-380h-21.12" stroke="#3a414a" fill="none"/><path d="M2479-379.52h-.5v-.96h.5z" stroke="#3a414a" stroke-width=".05" fill="#3a414a"/><path d="M2442.62-380l14.26-4.63v9.26z" stroke="#3a414a" fill="#3a414a"/><path d="M2021.5-380h21.12" stroke="#3a414a" fill="none"/><path d="M2021.5-379.52h-.5v-.96h.5z" stroke="#3a414a" stroke-width=".05" fill="#3a414a"/><path d="M2057.38-380l-14.26 4.63v-9.26z" stroke="#3a414a" fill="#3a414a"/><path d="M2221.5-380h41.12" stroke="#3a414a" fill="none"/><path d="M2221.5-379.52h-.5v-.96h.5z" stroke="#3a414a" stroke-width=".05" fill="#3a414a"/><path d="M2277.38-380l-14.26 4.63v-9.26z" stroke="#3a414a" fill="#3a414a"/><path d="M1858.5-380h-41.12" stroke="#3a414a" fill="none"/><path d="M1859-379.52h-.5v-.96h.5z" stroke="#3a414a" stroke-width=".05" fill="#3a414a"/><path d="M1802.62-380l14.26-4.63v9.26z" stroke="#3a414a" fill="#3a414a"/><path d="M1858.5-379.52h-12.48l-.88.06-.85.2-.8.34-.75.45-.66.56-.57.65-.45.74-.33.8-.2.84-.08.88v168l-.07 1-.24.98-.4.94-.52.87-.66.78-.77.66-.86.53-.94.4-1 .23-.98.07h-109.37l-1.02-3.13-2.24-1.63-1.36-.2-2.7.87-1.63 2.24-.3 1.88h-38.02v-.95h37.2l.22-1.3 1.95-2.67 3.2-1.05 1.82.3 2.67 1.95.9 2.78H1834l.88-.07.85-.2.8-.34.75-.45.66-.56.57-.65.45-.74.33-.8.2-.84.08-.88v-168l.07-1 .24-.98.4-.94.52-.87.66-.78.77-.66.86-.53.94-.4 1-.23.98-.08h12.52z" stroke="#3a414a" stroke-width=".05" fill="#3a414a"/><path d="M1859-379.52h-.5v-.96h.5z" fill="#3a414a"/><path stroke="#3a414a" stroke-width=".05" fill="#3a414a"/><path d="M1676.88-195.37l-14.26-4.63 14.26-4.63z" fill="#3a414a"/><path d="M1677.36-194.7l-16.28-5.3 16.28-5.3zm-13.2-5.3l12.25 3.98v-7.96z" stroke="#3a414a" stroke-width=".05" fill="#3a414a"/><path d="M1461.5-200h21.12" stroke="#3a414a" fill="none"/><path d="M1461.5-199.53h-.5v-.94h.5z" stroke="#3a414a" stroke-width=".05" fill="#3a414a"/><path d="M1497.38-200l-14.26 4.63v-9.26z" stroke="#3a414a" fill="#3a414a"/><path d="M1580-261.5V-314a6 6 0 0 0-6-6h-316.62" stroke="#3a414a" fill="none"/><path d="M1580.47-261h-.94v-.5h.94z" stroke="#3a414a" stroke-width=".05" fill="#3a414a"/><path d="M1242.62-320l14.26-4.63v9.26z" stroke="#3a414a" fill="#3a414a"/><path d="M1160.47-381.5h-.94v-149.7h.94zm142.15-326.94h-136.6l-.88.07-.85.2-.8.34-.75.45-.66.56-.57.66-.45.74-.33.8-.2.84-.08.9v150.35h-.94v-150.4l.07-1 .24-.98.4-.95.52-.87.66-.77.77-.65.86-.53.94-.4 1-.23.98-.1h136.64z" stroke="#3a414a" stroke-width=".05" fill="#3a414a"/><path d="M1160.47-381h-.94v-.5h.94z" fill="#3a414a"/><path stroke="#3a414a" stroke-width=".05" fill="#3a414a"/><path d="M1317.38-708.9l-14.26 4.62v-9.27z" fill="#3a414a"/><path d="M1318.92-708.9l-16.28 5.28v-10.58zm-15.33 3.97l12.25-3.98-12.26-4z" stroke="#3a414a" stroke-width=".05" fill="#3a414a"/><use xlink:href="#u" transform="matrix(1,0,0,1,1139.283950617284,-552.5298153575158) translate(0 14.222222222222223)"/><path d="M843.67 138.5h-.94v-669.7h.94zm458.95-988.02h-453.4l-.88.06-.85.2-.8.34-.75.45-.66.56-.57.65-.45.74-.33.8-.2.84-.08.88v291.45h-.94v-291.5l.07-.98.24-1 .4-.94.52-.87.66-.78.77-.66.86-.53.94-.4 1-.23.98-.08h453.44z" stroke="#3a414a" stroke-width=".05" fill="#3a414a"/><path d="M843.67 139h-.94v-.5h.94z" fill="#3a414a"/><path stroke="#3a414a" stroke-width=".05" fill="#3a414a"/><path d="M1317.38-850l-14.26 4.63v-9.26z" fill="#3a414a"/><path d="M1318.92-850l-16.28 5.3v-10.6zm-15.33 3.98l12.25-3.98-12.26-3.98z" stroke="#3a414a" stroke-width=".05" fill="#3a414a"/><use xlink:href="#v" transform="matrix(1,0,0,1,824.4592592592595,-552.5298153575159) translate(0 14.222222222222223)"/><path d="M1040.47 95.4l-1.86.3-2.23 1.64-.88 2.7.2 1.35 1.64 2.23 3.13 1.03v33.84h-.94v-33.16l-2.78-.9-1.95-2.67-.3-1.8 1.06-3.22 2.67-1.95 1.3-.2v-625.8h.94zm262.15-859.86h-256.6l-.88.07-.85.2-.8.34-.75.46-.66.56-.57.66-.45.74-.33.8-.2.84-.08.88v206.4h-.94v-206.43l.07-1 .24-.98.4-.94.52-.87.66-.77.77-.67.86-.54.94-.4 1-.23.98-.08h256.64z" stroke="#3a414a" stroke-width=".05" fill="#3a414a"/><path d="M1040.47 139h-.94v-.5h.94z" fill="#3a414a"/><path stroke="#3a414a" stroke-width=".05" fill="#3a414a"/><path d="M1317.38-764.93l-14.26 4.63v-9.27z" fill="#3a414a"/><path d="M1318.92-764.93l-16.28 5.28v-10.57zm-15.33 3.98l12.25-3.98-12.26-4z" stroke="#3a414a" stroke-width=".05" fill="#3a414a"/><use xlink:href="#u" transform="matrix(1,0,0,1,1019.283950617284,-552.529815357516) translate(0 14.222222222222223)"/><path d="M1380.47-324.6l-1.86.3-2.23 1.64-.88 2.7.2 1.35 1.64 2.23 3.13 1.02v53.85h-.94v-53.15l-2.78-.9-1.95-2.68-.3-1.8 1.06-3.22 2.67-1.95 1.3-.2v-198.3h.94zm0-220.43h-.94v-79.15h.94z" stroke="#3a414a" stroke-width=".05" fill="#3a414a"/><path d="M1380.47-261h-.94v-.5h.94z" fill="#3a414a"/><path stroke="#3a414a" stroke-width=".05" fill="#3a414a"/><path d="M1384.63-624.68h-9.27l4.64-14.27z" fill="#3a414a"/><path d="M1385.3-624.2h-10.6l5.3-16.3zm-9.28-.96h7.96L1380-637.4z" stroke="#3a414a" stroke-width=".05" fill="#3a414a"/><use xlink:href="#v" transform="matrix(1,0,0,1,1361.2592592592594,-545.0267859815631) translate(0 14.222222222222223)"/><path d="M1580.47-261.5h-.94v-260.32h.94zm0-281.65h-.94v-62.1h.94z" stroke="#3a414a" stroke-width=".05" fill="#3a414a"/><path d="M1580.47-261h-.94v-.5h.94z" fill="#3a414a"/><path stroke="#3a414a" stroke-width=".05" fill="#3a414a"/><path d="M1584.63-605.75h-9.27L1580-620z" fill="#3a414a"/><path d="M1585.3-605.27h-10.6l5.3-16.28zm-9.28-.95h7.96l-3.98-12.25z" stroke="#3a414a" stroke-width=".05" fill="#3a414a"/><use xlink:href="#v" transform="matrix(1,0,0,1,1561.2592592592594,-543.151028637575) translate(0 14.222222222222223)"/><path d="M1720.47-441.5h-.94v-77.88h.94zm0-99.22h-.94v-62h.94z" stroke="#3a414a" stroke-width=".05" fill="#3a414a"/><path d="M1720.47-441h-.94v-.5h.94z" fill="#3a414a"/><path stroke="#3a414a" stroke-width=".05" fill="#3a414a"/><path d="M1724.63-603.22h-9.27l4.64-14.26z" fill="#3a414a"/><path d="M1725.3-602.74h-10.6l5.3-16.28zm-9.28-.95h7.96l-3.98-12.25z" stroke="#3a414a" stroke-width=".05" fill="#3a414a"/><use xlink:href="#u" transform="matrix(1,0,0,1,1699.283950617284,-540.7180219222879) translate(0 14.222222222222223)"/><path d="M1940.47-441.5h-.94v-82.45h.94zm0-103.78h-.94v-66.56h.94z" stroke="#3a414a" stroke-width=".05" fill="#3a414a"/><path d="M1940.47-441h-.94v-.5h.94z" fill="#3a414a"/><path stroke="#3a414a" stroke-width=".05" fill="#3a414a"/><path d="M1944.63-612.34h-9.27l4.64-14.27z" fill="#3a414a"/><path d="M1945.3-611.87h-10.6l5.3-16.27zm-9.28-.95h7.96l-3.98-12.25z" stroke="#3a414a" stroke-width=".05" fill="#3a414a"/><use xlink:href="#v" transform="matrix(1,0,0,1,1921.2592592592594,-545.279696488811) translate(0 14.222222222222223)"/><path d="M2140.47-441.5h-.94v-89.7h.94zM2135-710.33l1 .24.94.4.87.53.78.66.66.76.53.87.4.94.23 1 .07.98v151.42h-.94V-703.9l-.07-.9-.2-.84-.34-.8-.45-.74-.56-.66-.65-.56-.74-.45-.8-.33-.84-.2-.88-.08h-16.6v-.95h16.64z" stroke="#3a414a" stroke-width=".05" fill="#3a414a"/><path d="M2140.47-441h-.94v-.5h.94z" fill="#3a414a"/><path stroke="#3a414a" stroke-width=".05" fill="#3a414a"/><path d="M2116.88-705.3l-14.26-4.63 14.26-4.64z" fill="#3a414a"/><path d="M2117.36-704.64l-16.28-5.3 16.28-5.28zm-13.2-5.3l12.25 4v-7.97z" stroke="#3a414a" stroke-width=".05" fill="#3a414a"/><use xlink:href="#w" transform="matrix(1,0,0,1,2098.074074074074,-552.5298153575158) translate(0 14.222222222222223)"/><path d="M2360.47-441.5h-.94v-91.57h.94zM2355-758.72l1 .24.94.38.87.53.78.67.66.77.53.86.4.94.23 1 .07 1v197.92h-.94v-197.9l-.07-.9-.2-.83-.34-.8-.45-.74-.56-.66-.65-.56-.74-.45-.8-.33-.84-.2-.88-.07h-236.6v-.95h236.64z" stroke="#3a414a" stroke-width=".05" fill="#3a414a"/><path d="M2360.47-441h-.94v-.5h.94z" fill="#3a414a"/><path stroke="#3a414a" stroke-width=".05" fill="#3a414a"/><path d="M2116.88-753.7l-14.26-4.63 14.26-4.63z" fill="#3a414a"/><path d="M2117.36-753.04l-16.28-5.3 16.28-5.27zm-13.2-5.3l12.25 4v-7.97z" stroke="#3a414a" stroke-width=".05" fill="#3a414a"/><g><use xlink:href="#u" transform="matrix(1,0,0,1,2339.283950617284,-554.4055727015038) translate(0 14.222222222222223)"/></g><path d="M2560.47-441.5h-.94v-89.7h.94zM2555-850.4l1 .24.94.4.87.52.78.66.66.77.53.86.4.94.23 1 .07.98v291.5h-.94V-844l-.07-.88-.2-.85-.34-.8-.45-.75-.56-.66-.65-.57-.74-.45-.8-.33-.84-.2-.88-.07h-436.6v-.96h436.64z" stroke="#3a414a" stroke-width=".05" fill="#3a414a"/><path d="M2560.47-441h-.94v-.5h.94z" fill="#3a414a"/><path stroke="#3a414a" stroke-width=".05" fill="#3a414a"/><path d="M2116.88-845.37l-14.26-4.63 14.26-4.63z" fill="#3a414a"/><path d="M2117.36-844.7l-16.28-5.3 16.28-5.3zm-13.2-5.3l12.25 3.98v-7.96z" stroke="#3a414a" stroke-width=".05" fill="#3a414a"/><g><use xlink:href="#v" transform="matrix(1,0,0,1,2541.259259259259,-552.5298153575158) translate(0 14.222222222222223)"/></g><path d="M1380-874a6 6 0 0 1 6-6h148a6 6 0 0 1 6 6v108a6 6 0 0 1-6 6h-148a6 6 0 0 1-6-6z" stroke="#3a414a" stroke-width="2" fill="#fff"/><g><use xlink:href="#z" transform="matrix(1,0,0,1,1392,-868) translate(8.185185185185176 53.77777777777778)"/></g><path d="M1630-954a6 6 0 0 1 6-6h148a6 6 0 0 1 6 6v108a6 6 0 0 1-6 6h-148a6 6 0 0 1-6-6z" stroke="#3a414a" stroke-width="2" fill="#fff"/><g><use xlink:href="#A" transform="matrix(1,0,0,1,1642,-948) translate(39.04938271604939 53.77777777777778)"/></g><path d="M1840-854a6 6 0 0 1 6-6h148a6 6 0 0 1 6 6v108a6 6 0 0 1-6 6h-148a6 6 0 0 1-6-6z" stroke="#3a414a" stroke-width="2" fill="#fff"/><g><use xlink:href="#B" transform="matrix(1,0,0,1,1852,-848) translate(26.117283950617285 53.77777777777778)"/></g><defs><path d="M30 0v-248h33v221h125V0H30" id="C"/><path d="M100-194c62-1 85 37 85 99 1 63-27 99-86 99S16-35 15-95c0-66 28-99 85-99zM99-20c44 1 53-31 53-75 0-43-8-75-51-75s-53 32-53 75 10 74 51 75" id="D"/><path d="M177-190C167-65 218 103 67 71c-23-6-38-20-44-43l32-5c15 47 100 32 89-28v-30C133-14 115 1 83 1 29 1 15-40 15-95c0-56 16-97 71-98 29-1 48 16 59 35 1-10 0-23 2-32h30zM94-22c36 0 50-32 50-73 0-42-14-75-50-75-39 0-46 34-46 75s6 73 46 73" id="E"/><path d="M24-231v-30h32v30H24zM24 0v-190h32V0H24" id="F"/><path d="M117-194c89-4 53 116 60 194h-32v-121c0-31-8-49-39-48C34-167 62-67 57 0H25l-1-190h30c1 10-1 24 2 32 11-22 29-35 61-36" id="G"/><g id="a"><use transform="matrix(0.06172839506172839,0,0,0.06172839506172839,0,0)" xlink:href="#C"/><use transform="matrix(0.06172839506172839,0,0,0.06172839506172839,12.345679012345679,0)" xlink:href="#D"/><use transform="matrix(0.06172839506172839,0,0,0.06172839506172839,24.691358024691358,0)" xlink:href="#E"/><use transform="matrix(0.06172839506172839,0,0,0.06172839506172839,37.03703703703704,0)" xlink:href="#F"/><use transform="matrix(0.06172839506172839,0,0,0.06172839506172839,41.91358024691358,0)" xlink:href="#G"/></g><path d="M232-93c-1 65-40 97-104 97C67 4 28-28 28-90v-158h33c8 89-33 224 67 224 102 0 64-133 71-224h33v155" id="H"/><path d="M33 0v-248h34V0H33" id="I"/><g id="b"><use transform="matrix(0.06172839506172839,0,0,0.06172839506172839,0,0)" xlink:href="#H"/><use transform="matrix(0.06172839506172839,0,0,0.06172839506172839,15.987654320987653,0)" xlink:href="#I"/></g><path d="M205 0l-28-72H64L36 0H1l101-248h38L239 0h-34zm-38-99l-47-123c-12 45-31 82-46 123h93" id="J"/><path d="M84 4C-5 8 30-112 23-190h32v120c0 31 7 50 39 49 72-2 45-101 50-169h31l1 190h-30c-1-10 1-25-2-33-11 22-28 36-60 37" id="K"/><path d="M59-47c-2 24 18 29 38 22v24C64 9 27 4 27-40v-127H5v-23h24l9-43h21v43h35v23H59v120" id="L"/><path d="M106-169C34-169 62-67 57 0H25v-261h32l-1 103c12-21 28-36 61-36 89 0 53 116 60 194h-32v-121c2-32-8-49-39-48" id="M"/><path d="M100-194c63 0 86 42 84 106H49c0 40 14 67 53 68 26 1 43-12 49-29l28 8c-11 28-37 45-77 45C44 4 14-33 15-96c1-61 26-98 85-98zm52 81c6-60-76-77-97-28-3 7-6 17-6 28h103" id="N"/><path d="M96-169c-40 0-48 33-48 73s9 75 48 75c24 0 41-14 43-38l32 2c-6 37-31 61-74 61-59 0-76-41-82-99-10-93 101-131 147-64 4 7 5 14 7 22l-32 3c-4-21-16-35-41-35" id="O"/><path d="M141-36C126-15 110 5 73 4 37 3 15-17 15-53c-1-64 63-63 125-63 3-35-9-54-41-54-24 1-41 7-42 31l-33-3c5-37 33-52 76-52 45 0 72 20 72 64v82c-1 20 7 32 28 27v20c-31 9-61-2-59-35zM48-53c0 20 12 33 32 33 41-3 63-29 60-74-43 2-92-5-92 41" id="P"/><g id="c"><use transform="matrix(0.06172839506172839,0,0,0.06172839506172839,0,0)" xlink:href="#J"/><use transform="matrix(0.06172839506172839,0,0,0.06172839506172839,14.814814814814813,0)" xlink:href="#K"/><use transform="matrix(0.06172839506172839,0,0,0.06172839506172839,27.160493827160494,0)" xlink:href="#L"/><use transform="matrix(0.06172839506172839,0,0,0.06172839506172839,33.333333333333336,0)" xlink:href="#M"/><use transform="matrix(0.06172839506172839,0,0,0.06172839506172839,45.67901234567901,0)" xlink:href="#N"/><use transform="matrix(0.06172839506172839,0,0,0.06172839506172839,58.02469135802469,0)" xlink:href="#G"/><use transform="matrix(0.06172839506172839,0,0,0.06172839506172839,70.37037037037037,0)" xlink:href="#L"/><use transform="matrix(0.06172839506172839,0,0,0.06172839506172839,76.5432098765432,0)" xlink:href="#F"/><use transform="matrix(0.06172839506172839,0,0,0.06172839506172839,81.41975308641975,0)" xlink:href="#O"/><use transform="matrix(0.06172839506172839,0,0,0.06172839506172839,92.53086419753086,0)" xlink:href="#P"/><use transform="matrix(0.06172839506172839,0,0,0.06172839506172839,104.87654320987654,0)" xlink:href="#L"/><use transform="matrix(0.06172839506172839,0,0,0.06172839506172839,111.04938271604938,0)" xlink:href="#F"/><use transform="matrix(0.06172839506172839,0,0,0.06172839506172839,115.92592592592592,0)" xlink:href="#D"/><use transform="matrix(0.06172839506172839,0,0,0.06172839506172839,128.2716049382716,0)" xlink:href="#G"/></g><path d="M85-194c31 0 48 13 60 33l-1-100h32l1 261h-30c-2-10 0-23-3-31C134-8 116 4 85 4 32 4 16-35 15-94c0-66 23-100 70-100zm9 24c-40 0-46 34-46 75 0 40 6 74 45 74 42 0 51-32 51-76 0-42-9-74-50-73" id="Q"/><path d="M210-169c-67 3-38 105-44 169h-31v-121c0-29-5-50-35-48C34-165 62-65 56 0H25l-1-190h30c1 10-1 24 2 32 10-44 99-50 107 0 11-21 27-35 58-36 85-2 47 119 55 194h-31v-121c0-29-5-49-35-48" id="R"/><g id="d"><use transform="matrix(0.06172839506172839,0,0,0.06172839506172839,0,0)" xlink:href="#J"/><use transform="matrix(0.06172839506172839,0,0,0.06172839506172839,14.814814814814813,0)" xlink:href="#Q"/><use transform="matrix(0.06172839506172839,0,0,0.06172839506172839,27.160493827160494,0)" xlink:href="#R"/><use transform="matrix(0.06172839506172839,0,0,0.06172839506172839,45.61728395061728,0)" xlink:href="#F"/><use transform="matrix(0.06172839506172839,0,0,0.06172839506172839,50.49382716049382,0)" xlink:href="#G"/></g><path d="M140-251c81 0 123 46 123 126C263-46 219 4 140 4 59 4 17-45 17-125s42-126 123-126zm0 227c63 0 89-41 89-101s-29-99-89-99c-61 0-89 39-89 99S79-25 140-24" id="S"/><path d="M206 0h-36l-40-164L89 0H53L-1-190h32L70-26l43-164h34l41 164 42-164h31" id="T"/><path d="M114-163C36-179 61-72 57 0H25l-1-190h30c1 12-1 29 2 39 6-27 23-49 58-41v29" id="U"/><g id="e"><use transform="matrix(0.06172839506172839,0,0,0.06172839506172839,0,0)" xlink:href="#S"/><use transform="matrix(0.06172839506172839,0,0,0.06172839506172839,17.28395061728395,0)" xlink:href="#T"/><use transform="matrix(0.06172839506172839,0,0,0.06172839506172839,33.2716049382716,0)" xlink:href="#G"/><use transform="matrix(0.06172839506172839,0,0,0.06172839506172839,45.61728395061728,0)" xlink:href="#N"/><use transform="matrix(0.06172839506172839,0,0,0.06172839506172839,57.962962962962955,0)" xlink:href="#U"/></g><path d="M190 0L58-211 59 0H30v-248h39L202-35l-2-213h31V0h-41" id="V"/><path d="M24 0v-261h32V0H24" id="W"/><g id="f"><use transform="matrix(0.06172839506172839,0,0,0.06172839506172839,0,0)" xlink:href="#V"/><use transform="matrix(0.06172839506172839,0,0,0.06172839506172839,15.987654320987653,0)" xlink:href="#D"/><use transform="matrix(0.06172839506172839,0,0,0.06172839506172839,28.333333333333332,0)" xlink:href="#U"/><use transform="matrix(0.06172839506172839,0,0,0.06172839506172839,35.67901234567901,0)" xlink:href="#R"/><use transform="matrix(0.06172839506172839,0,0,0.06172839506172839,54.1358024691358,0)" xlink:href="#P"/><use transform="matrix(0.06172839506172839,0,0,0.06172839506172839,66.48148148148148,0)" xlink:href="#W"/></g><path d="M185-189c-5-48-123-54-124 2 14 75 158 14 163 119 3 78-121 87-175 55-17-10-28-26-33-46l33-7c5 56 141 63 141-1 0-78-155-14-162-118-5-82 145-84 179-34 5 7 8 16 11 25" id="X"/><g id="g"><use transform="matrix(0.06172839506172839,0,0,0.06172839506172839,0,0)" xlink:href="#X"/><use transform="matrix(0.06172839506172839,0,0,0.06172839506172839,14.814814814814813,0)" xlink:href="#N"/><use transform="matrix(0.06172839506172839,0,0,0.06172839506172839,27.160493827160494,0)" xlink:href="#P"/><use transform="matrix(0.06172839506172839,0,0,0.06172839506172839,39.50617283950617,0)" xlink:href="#U"/><use transform="matrix(0.06172839506172839,0,0,0.06172839506172839,46.85185185185185,0)" xlink:href="#O"/><use transform="matrix(0.06172839506172839,0,0,0.06172839506172839,57.96296296296296,0)" xlink:href="#M"/></g><path d="M137 0h-34L2-248h35l83 218 83-218h36" id="Y"/><g id="h"><use transform="matrix(0.06172839506172839,0,0,0.06172839506172839,0,0)" xlink:href="#Y"/><use transform="matrix(0.06172839506172839,0,0,0.06172839506172839,14.382716049382715,0)" xlink:href="#F"/><use transform="matrix(0.06172839506172839,0,0,0.06172839506172839,19.25925925925926,0)" xlink:href="#N"/><use transform="matrix(0.06172839506172839,0,0,0.06172839506172839,31.604938271604937,0)" xlink:href="#T"/></g><path d="M233-177c-1 41-23 64-60 70L243 0h-38l-65-103H63V0H30v-248c88 3 205-21 203 71zM63-129c60-2 137 13 137-47 0-61-80-42-137-45v92" id="Z"/><path d="M135-143c-3-34-86-38-87 0 15 53 115 12 119 90S17 21 10-45l28-5c4 36 97 45 98 0-10-56-113-15-118-90-4-57 82-63 122-42 12 7 21 19 24 35" id="aa"/><g id="i"><use transform="matrix(0.06172839506172839,0,0,0.06172839506172839,0,0)" xlink:href="#Z"/><use transform="matrix(0.06172839506172839,0,0,0.06172839506172839,15.987654320987653,0)" xlink:href="#N"/><use transform="matrix(0.06172839506172839,0,0,0.06172839506172839,28.333333333333332,0)" xlink:href="#aa"/><use transform="matrix(0.06172839506172839,0,0,0.06172839506172839,39.44444444444444,0)" xlink:href="#L"/><use transform="matrix(0.06172839506172839,0,0,0.06172839506172839,45.617283950617285,0)" xlink:href="#P"/><use transform="matrix(0.06172839506172839,0,0,0.06172839506172839,57.96296296296296,0)" xlink:href="#U"/><use transform="matrix(0.06172839506172839,0,0,0.06172839506172839,65.30864197530865,0)" xlink:href="#K"/><use transform="matrix(0.06172839506172839,0,0,0.06172839506172839,77.65432098765433,0)" xlink:href="#P"/><use transform="matrix(0.06172839506172839,0,0,0.06172839506172839,90.00000000000001,0)" xlink:href="#G"/><use transform="matrix(0.06172839506172839,0,0,0.06172839506172839,102.3456790123457,0)" xlink:href="#L"/></g><g id="j"><use transform="matrix(0.06172839506172839,0,0,0.06172839506172839,0,0)" xlink:href="#J"/><use transform="matrix(0.06172839506172839,0,0,0.06172839506172839,14.814814814814813,0)" xlink:href="#Q"/><use transform="matrix(0.06172839506172839,0,0,0.06172839506172839,27.160493827160494,0)" xlink:href="#Q"/></g><g id="k"><use transform="matrix(0.06172839506172839,0,0,0.06172839506172839,0,0)" xlink:href="#Z"/><use transform="matrix(0.06172839506172839,0,0,0.06172839506172839,15.987654320987653,0)" xlink:href="#N"/><use transform="matrix(0.06172839506172839,0,0,0.06172839506172839,28.333333333333332,0)" xlink:href="#aa"/><use transform="matrix(0.06172839506172839,0,0,0.06172839506172839,39.44444444444444,0)" xlink:href="#L"/><use transform="matrix(0.06172839506172839,0,0,0.06172839506172839,45.617283950617285,0)" xlink:href="#P"/><use transform="matrix(0.06172839506172839,0,0,0.06172839506172839,57.96296296296296,0)" xlink:href="#K"/><use transform="matrix(0.06172839506172839,0,0,0.06172839506172839,70.30864197530865,0)" xlink:href="#U"/><use transform="matrix(0.06172839506172839,0,0,0.06172839506172839,77.65432098765433,0)" xlink:href="#P"/><use transform="matrix(0.06172839506172839,0,0,0.06172839506172839,90.00000000000001,0)" xlink:href="#G"/><use transform="matrix(0.06172839506172839,0,0,0.06172839506172839,102.3456790123457,0)" xlink:href="#L"/></g><path d="M30 0v-248h187v28H63v79h144v27H63v87h162V0H30" id="ab"/><g id="l"><use transform="matrix(0.06172839506172839,0,0,0.06172839506172839,0,0)" xlink:href="#ab"/><use transform="matrix(0.06172839506172839,0,0,0.06172839506172839,14.814814814814813,0)" xlink:href="#Q"/><use transform="matrix(0.06172839506172839,0,0,0.06172839506172839,27.160493827160494,0)" xlink:href="#F"/><use transform="matrix(0.06172839506172839,0,0,0.06172839506172839,32.03703703703704,0)" xlink:href="#L"/></g><g id="m"><use transform="matrix(0.06172839506172839,0,0,0.06172839506172839,0,0)" xlink:href="#Y"/><use transform="matrix(0.06172839506172839,0,0,0.06172839506172839,14.382716049382715,0)" xlink:href="#F"/><use transform="matrix(0.06172839506172839,0,0,0.06172839506172839,19.25925925925926,0)" xlink:href="#N"/><use transform="matrix(0.06172839506172839,0,0,0.06172839506172839,31.604938271604937,0)" xlink:href="#T"/></g><g id="n"><use transform="matrix(0.06172839506172839,0,0,0.06172839506172839,0,0)" xlink:href="#S"/><use transform="matrix(0.06172839506172839,0,0,0.06172839506172839,17.28395061728395,0)" xlink:href="#T"/><use transform="matrix(0.06172839506172839,0,0,0.06172839506172839,33.2716049382716,0)" xlink:href="#G"/><use transform="matrix(0.06172839506172839,0,0,0.06172839506172839,45.61728395061728,0)" xlink:href="#N"/><use transform="matrix(0.06172839506172839,0,0,0.06172839506172839,57.962962962962955,0)" xlink:href="#Q"/></g><g id="o"><use transform="matrix(0.06172839506172839,0,0,0.06172839506172839,0,0)" xlink:href="#Z"/><use transform="matrix(0.06172839506172839,0,0,0.06172839506172839,15.987654320987653,0)" xlink:href="#N"/><use transform="matrix(0.06172839506172839,0,0,0.06172839506172839,28.333333333333332,0)" xlink:href="#aa"/><use transform="matrix(0.06172839506172839,0,0,0.06172839506172839,39.44444444444444,0)" xlink:href="#L"/><use transform="matrix(0.06172839506172839,0,0,0.06172839506172839,45.617283950617285,0)" xlink:href="#P"/><use transform="matrix(0.06172839506172839,0,0,0.06172839506172839,57.96296296296296,0)" xlink:href="#K"/><use transform="matrix(0.06172839506172839,0,0,0.06172839506172839,70.30864197530865,0)" xlink:href="#U"/><use transform="matrix(0.06172839506172839,0,0,0.06172839506172839,77.65432098765433,0)" xlink:href="#P"/><use transform="matrix(0.06172839506172839,0,0,0.06172839506172839,90.00000000000001,0)" xlink:href="#G"/><use transform="matrix(0.06172839506172839,0,0,0.06172839506172839,102.3456790123457,0)" xlink:href="#L"/><use transform="matrix(0.06172839506172839,0,0,0.06172839506172839,108.51851851851853,0)" xlink:href="#aa"/></g><path d="M30-248c118-7 216 8 213 122C240-48 200 0 122 0H30v-248zM63-27c89 8 146-16 146-99s-60-101-146-95v194" id="ac"/><path d="M115-194c55 1 70 41 70 98S169 2 115 4C84 4 66-9 55-30l1 105H24l-1-265h31l2 30c10-21 28-34 59-34zm-8 174c40 0 45-34 45-75s-6-73-45-74c-42 0-51 32-51 76 0 43 10 73 51 73" id="ad"/><g id="p"><use transform="matrix(0.06172839506172839,0,0,0.06172839506172839,0,0)" xlink:href="#ac"/><use transform="matrix(0.06172839506172839,0,0,0.06172839506172839,15.987654320987653,0)" xlink:href="#K"/><use transform="matrix(0.06172839506172839,0,0,0.06172839506172839,28.333333333333332,0)" xlink:href="#ad"/><use transform="matrix(0.06172839506172839,0,0,0.06172839506172839,40.67901234567901,0)" xlink:href="#W"/><use transform="matrix(0.06172839506172839,0,0,0.06172839506172839,45.55555555555556,0)" xlink:href="#F"/><use transform="matrix(0.06172839506172839,0,0,0.06172839506172839,50.4320987654321,0)" xlink:href="#O"/><use transform="matrix(0.06172839506172839,0,0,0.06172839506172839,61.543209876543216,0)" xlink:href="#P"/><use transform="matrix(0.06172839506172839,0,0,0.06172839506172839,73.8888888888889,0)" xlink:href="#L"/><use transform="matrix(0.06172839506172839,0,0,0.06172839506172839,80.06172839506173,0)" xlink:href="#N"/></g><g id="q"><use transform="matrix(0.06172839506172839,0,0,0.06172839506172839,0,0)" xlink:href="#C"/><use transform="matrix(0.06172839506172839,0,0,0.06172839506172839,12.345679012345679,0)" xlink:href="#F"/><use transform="matrix(0.06172839506172839,0,0,0.06172839506172839,17.22222222222222,0)" xlink:href="#aa"/><use transform="matrix(0.06172839506172839,0,0,0.06172839506172839,28.333333333333332,0)" xlink:href="#L"/><use transform="matrix(0.06172839506172839,0,0,0.06172839506172839,34.50617283950617,0)" xlink:href="#F"/><use transform="matrix(0.06172839506172839,0,0,0.06172839506172839,39.382716049382715,0)" xlink:href="#G"/><use transform="matrix(0.06172839506172839,0,0,0.06172839506172839,51.72839506172839,0)" xlink:href="#E"/><use transform="matrix(0.06172839506172839,0,0,0.06172839506172839,64.07407407407408,0)" xlink:href="#aa"/></g><g id="r"><use transform="matrix(0.06172839506172839,0,0,0.06172839506172839,0,0)" xlink:href="#ac"/><use transform="matrix(0.06172839506172839,0,0,0.06172839506172839,15.987654320987653,0)" xlink:href="#N"/><use transform="matrix(0.06172839506172839,0,0,0.06172839506172839,28.333333333333332,0)" xlink:href="#W"/><use transform="matrix(0.06172839506172839,0,0,0.06172839506172839,33.20987654320987,0)" xlink:href="#N"/><use transform="matrix(0.06172839506172839,0,0,0.06172839506172839,45.55555555555555,0)" xlink:href="#L"/><use transform="matrix(0.06172839506172839,0,0,0.06172839506172839,51.72839506172839,0)" xlink:href="#N"/></g><path d="M108 0H70L1-190h34L89-25l56-165h34" id="ae"/><g id="s"><use transform="matrix(0.06172839506172839,0,0,0.06172839506172839,0,0)" xlink:href="#Z"/><use transform="matrix(0.06172839506172839,0,0,0.06172839506172839,15.987654320987653,0)" xlink:href="#N"/><use transform="matrix(0.06172839506172839,0,0,0.06172839506172839,28.333333333333332,0)" xlink:href="#ae"/><use transform="matrix(0.06172839506172839,0,0,0.06172839506172839,39.44444444444444,0)" xlink:href="#F"/><use transform="matrix(0.06172839506172839,0,0,0.06172839506172839,44.32098765432099,0)" xlink:href="#N"/><use transform="matrix(0.06172839506172839,0,0,0.06172839506172839,56.666666666666664,0)" xlink:href="#T"/></g><path d="M115-194c53 0 69 39 70 98 0 66-23 100-70 100C84 3 66-7 56-30L54 0H23l1-261h32v101c10-23 28-34 59-34zm-8 174c40 0 45-34 45-75 0-40-5-75-45-74-42 0-51 32-51 76 0 43 10 73 51 73" id="af"/><g id="t"><use transform="matrix(0.06172839506172839,0,0,0.06172839506172839,0,0)" xlink:href="#ac"/><use transform="matrix(0.06172839506172839,0,0,0.06172839506172839,15.987654320987653,0)" xlink:href="#P"/><use transform="matrix(0.06172839506172839,0,0,0.06172839506172839,28.333333333333332,0)" xlink:href="#L"/><use transform="matrix(0.06172839506172839,0,0,0.06172839506172839,34.50617283950617,0)" xlink:href="#P"/><use transform="matrix(0.06172839506172839,0,0,0.06172839506172839,46.85185185185185,0)" xlink:href="#af"/><use transform="matrix(0.06172839506172839,0,0,0.06172839506172839,59.197530864197525,0)" xlink:href="#P"/><use transform="matrix(0.06172839506172839,0,0,0.06172839506172839,71.5432098765432,0)" xlink:href="#aa"/><use transform="matrix(0.06172839506172839,0,0,0.06172839506172839,82.65432098765432,0)" xlink:href="#N"/></g><path fill="#333" d="M231 0h-52l-39-155L100 0H48L-1-190h46L77-45c9-52 24-97 36-145h53l37 145 32-145h46" id="ag"/><path fill="#333" d="M135-150c-39-12-60 13-60 57V0H25l-1-190h47c2 13-1 29 3 40 6-28 27-53 61-41v41" id="ah"/><path fill="#333" d="M25-224v-37h50v37H25zM25 0v-190h50V0H25" id="ai"/><path fill="#333" d="M115-3C79 11 28 4 28-45v-112H4v-33h27l15-45h31v45h36v33H77v99c-1 23 16 31 38 25v30" id="aj"/><path fill="#333" d="M185-48c-13 30-37 53-82 52C43 2 14-33 14-96s30-98 90-98c62 0 83 45 84 108H66c0 31 8 55 39 56 18 0 30-7 34-22zm-45-69c5-46-57-63-70-21-2 6-4 13-4 21h74" id="ak"/><g id="u"><use transform="matrix(0.04938271604938272,0,0,0.04938271604938272,0,0)" xlink:href="#ag"/><use transform="matrix(0.04938271604938272,0,0,0.04938271604938272,13.827160493827162,0)" xlink:href="#ah"/><use transform="matrix(0.04938271604938272,0,0,0.04938271604938272,20.74074074074074,0)" xlink:href="#ai"/><use transform="matrix(0.04938271604938272,0,0,0.04938271604938272,25.679012345679016,0)" xlink:href="#aj"/><use transform="matrix(0.04938271604938272,0,0,0.04938271604938272,31.555555555555557,0)" xlink:href="#ak"/></g><path fill="#333" d="M133-34C117-15 103 5 69 4 32 3 11-16 11-54c-1-60 55-63 116-61 1-26-3-47-28-47-18 1-26 9-28 27l-52-2c7-38 36-58 82-57s74 22 75 68l1 82c-1 14 12 18 25 15v27c-30 8-71 5-69-32zm-48 3c29 0 43-24 42-57-32 0-66-3-65 30 0 17 8 27 23 27" id="al"/><path fill="#333" d="M88-194c31-1 46 15 58 34l-1-101h50l1 261h-48c-2-10 0-23-3-31C134-8 116 4 84 4 32 4 16-41 15-95c0-56 19-97 73-99zm17 164c33 0 40-30 41-66 1-37-9-64-41-64s-38 30-39 65c0 43 13 65 39 65" id="am"/><g id="v"><use transform="matrix(0.04938271604938272,0,0,0.04938271604938272,0,0)" xlink:href="#ah"/><use transform="matrix(0.04938271604938272,0,0,0.04938271604938272,6.913580246913581,0)" xlink:href="#ak"/><use transform="matrix(0.04938271604938272,0,0,0.04938271604938272,16.790123456790127,0)" xlink:href="#al"/><use transform="matrix(0.04938271604938272,0,0,0.04938271604938272,26.666666666666668,0)" xlink:href="#am"/></g><path fill="#333" d="M4 7l51-268h42L46 7H4" id="an"/><g id="w"><use transform="matrix(0.04938271604938272,0,0,0.04938271604938272,0,0)" xlink:href="#ah"/><use transform="matrix(0.04938271604938272,0,0,0.04938271604938272,6.913580246913581,0)" xlink:href="#ak"/><use transform="matrix(0.04938271604938272,0,0,0.04938271604938272,16.790123456790127,0)" xlink:href="#al"/><use transform="matrix(0.04938271604938272,0,0,0.04938271604938272,26.666666666666668,0)" xlink:href="#am"/><use transform="matrix(0.04938271604938272,0,0,0.04938271604938272,37.48148148148149,0)" xlink:href="#an"/><use transform="matrix(0.04938271604938272,0,0,0.04938271604938272,42.41975308641976,0)" xlink:href="#ag"/><use transform="matrix(0.04938271604938272,0,0,0.04938271604938272,56.24691358024693,0)" xlink:href="#ah"/><use transform="matrix(0.04938271604938272,0,0,0.04938271604938272,63.16049382716051,0)" xlink:href="#ai"/><use transform="matrix(0.04938271604938272,0,0,0.04938271604938272,68.09876543209879,0)" xlink:href="#aj"/><use transform="matrix(0.04938271604938272,0,0,0.04938271604938272,73.97530864197533,0)" xlink:href="#ak"/></g><g id="x"><use transform="matrix(0.06172839506172839,0,0,0.06172839506172839,0,0)" xlink:href="#V"/><use transform="matrix(0.06172839506172839,0,0,0.06172839506172839,15.987654320987653,0)" xlink:href="#N"/><use transform="matrix(0.06172839506172839,0,0,0.06172839506172839,28.333333333333332,0)" xlink:href="#T"/></g><g id="y"><use transform="matrix(0.06172839506172839,0,0,0.06172839506172839,0,0)" xlink:href="#J"/><use transform="matrix(0.06172839506172839,0,0,0.06172839506172839,14.814814814814813,0)" xlink:href="#O"/><use transform="matrix(0.06172839506172839,0,0,0.06172839506172839,25.925925925925924,0)" xlink:href="#O"/><use transform="matrix(0.06172839506172839,0,0,0.06172839506172839,37.03703703703704,0)" xlink:href="#D"/><use transform="matrix(0.06172839506172839,0,0,0.06172839506172839,49.382716049382715,0)" xlink:href="#K"/><use transform="matrix(0.06172839506172839,0,0,0.06172839506172839,61.72839506172839,0)" xlink:href="#G"/><use transform="matrix(0.06172839506172839,0,0,0.06172839506172839,74.07407407407408,0)" xlink:href="#L"/></g><g id="z"><use transform="matrix(0.06172839506172839,0,0,0.06172839506172839,0,0)" xlink:href="#Z"/><use transform="matrix(0.06172839506172839,0,0,0.06172839506172839,15.987654320987653,0)" xlink:href="#N"/><use transform="matrix(0.06172839506172839,0,0,0.06172839506172839,28.333333333333332,0)" xlink:href="#aa"/><use transform="matrix(0.06172839506172839,0,0,0.06172839506172839,39.44444444444444,0)" xlink:href="#L"/><use transform="matrix(0.06172839506172839,0,0,0.06172839506172839,45.617283950617285,0)" xlink:href="#P"/><use transform="matrix(0.06172839506172839,0,0,0.06172839506172839,57.96296296296296,0)" xlink:href="#K"/><use transform="matrix(0.06172839506172839,0,0,0.06172839506172839,70.30864197530865,0)" xlink:href="#U"/><use transform="matrix(0.06172839506172839,0,0,0.06172839506172839,77.65432098765433,0)" xlink:href="#P"/><use transform="matrix(0.06172839506172839,0,0,0.06172839506172839,90.00000000000001,0)" xlink:href="#G"/><use transform="matrix(0.06172839506172839,0,0,0.06172839506172839,102.3456790123457,0)" xlink:href="#L"/><use transform="matrix(0.06172839506172839,0,0,0.06172839506172839,108.51851851851853,0)" xlink:href="#aa"/></g><g id="A"><use transform="matrix(0.06172839506172839,0,0,0.06172839506172839,0,0)" xlink:href="#H"/><use transform="matrix(0.06172839506172839,0,0,0.06172839506172839,15.987654320987653,0)" xlink:href="#aa"/><use transform="matrix(0.06172839506172839,0,0,0.06172839506172839,27.098765432098766,0)" xlink:href="#N"/><use transform="matrix(0.06172839506172839,0,0,0.06172839506172839,39.44444444444444,0)" xlink:href="#U"/><use transform="matrix(0.06172839506172839,0,0,0.06172839506172839,46.79012345679012,0)" xlink:href="#aa"/></g><g id="B"><use transform="matrix(0.06172839506172839,0,0,0.06172839506172839,0,0)" xlink:href="#Z"/><use transform="matrix(0.06172839506172839,0,0,0.06172839506172839,15.987654320987653,0)" xlink:href="#N"/><use transform="matrix(0.06172839506172839,0,0,0.06172839506172839,28.333333333333332,0)" xlink:href="#ae"/><use transform="matrix(0.06172839506172839,0,0,0.06172839506172839,39.44444444444444,0)" xlink:href="#F"/><use transform="matrix(0.06172839506172839,0,0,0.06172839506172839,44.32098765432099,0)" xlink:href="#N"/><use transform="matrix(0.06172839506172839,0,0,0.06172839506172839,56.666666666666664,0)" xlink:href="#T"/><use transform="matrix(0.06172839506172839,0,0,0.06172839506172839,72.65432098765432,0)" xlink:href="#aa"/></g></defs></g></svg>